<svg width="362" height="88" viewBox="0 0 362 88" fill="none" xmlns="http://www.w3.org/2000/svg">
<path fill-rule="evenodd" clip-rule="evenodd" d="M168.457 12.9587C168.457 16.3567 168.501 17.7469 168.555 16.0478C168.609 14.3487 168.609 11.5688 168.555 9.86971C168.501 8.17058 168.457 9.5608 168.457 12.9587ZM138.866 10.6985C138.867 11.8587 138.921 12.2963 138.987 11.6713C139.052 11.046 139.051 10.0966 138.985 9.56171C138.918 9.02648 138.864 9.5382 138.866 10.6985ZM70.9907 16.4245C70.9922 17.5848 71.0465 18.0224 71.1119 17.3973C71.1771 16.772 71.1762 15.8227 71.1095 15.2877C71.0429 14.7525 70.9895 15.2642 70.9907 16.4245ZM217.012 18.6848C217.012 20.5909 217.062 21.3706 217.121 20.4177C217.181 19.4644 217.181 17.9048 217.121 16.9519C217.062 15.9987 217.012 16.7786 217.012 18.6848ZM103.579 20.6437C103.578 22.1355 103.629 22.7837 103.692 22.0842C103.755 21.3847 103.756 20.1642 103.694 19.3719C103.632 18.5796 103.58 19.1519 103.579 20.6437ZM105.387 21.6985C105.387 23.1074 105.439 23.6836 105.503 22.9793C105.566 22.2747 105.566 21.122 105.503 20.4177C105.439 19.7131 105.387 20.2896 105.387 21.6985ZM218.81 21.3971C218.81 22.6403 218.863 23.149 218.928 22.5272C218.993 21.9058 218.993 20.8887 218.928 20.267C218.863 19.6455 218.81 20.154 218.81 21.3971ZM168.752 23.9587C168.753 26.4451 168.799 27.4221 168.856 26.1298C168.913 24.8378 168.913 22.8036 168.856 21.6093C168.798 20.4152 168.752 21.4724 168.752 23.9587ZM68.879 23.0546C68.8805 24.2149 68.9348 24.6525 69.0003 24.0275C69.0654 23.4021 69.0645 22.4528 68.9979 21.9179C68.9312 21.3826 68.8778 21.8944 68.879 23.0546ZM283.084 26.6711C283.084 29.1574 283.131 30.1344 283.188 28.8421C283.245 27.5502 283.244 25.5159 283.187 24.3216C283.13 23.1276 283.084 24.1848 283.084 26.6711ZM7.6452 25.1642C7.6461 26.4903 7.6992 26.9954 7.76285 26.2865C7.8268 25.5777 7.8259 24.4928 7.76104 23.8756C7.69618 23.2584 7.64399 23.8382 7.6452 25.1642ZM94.5303 26.5204C94.5303 28.0951 94.5813 28.7391 94.6434 27.9519C94.7056 27.1647 94.7056 25.8761 94.6434 25.0889C94.5813 24.3017 94.5303 24.9457 94.5303 26.5204ZM81.8679 28.3286C81.8679 30.4005 81.9161 31.2483 81.975 30.2122C82.0341 29.1764 82.0341 27.4812 81.975 26.4451C81.9161 25.4092 81.8679 26.2567 81.8679 28.3286ZM68.5885 28.4793C68.5894 30.1368 68.6401 30.7763 68.701 29.9006C68.7623 29.0251 68.7617 27.6689 68.6998 26.8869C68.6377 26.1051 68.5879 26.8218 68.5885 28.4793ZM80.0452 27.8766C80.0461 29.2026 80.0992 29.7077 80.1628 28.9989C80.2268 28.29 80.2259 27.2051 80.161 26.5879C80.0962 25.9707 80.044 26.5505 80.0452 27.8766ZM138.569 29.082C138.569 30.4081 138.623 30.9132 138.686 30.2043C138.75 29.4955 138.749 28.4106 138.684 27.7934C138.62 27.1762 138.567 27.756 138.569 29.082ZM191.367 32.3971C191.368 34.0546 191.418 34.6941 191.479 33.8184C191.541 32.9429 191.54 31.5867 191.478 30.8047C191.416 30.0229 191.366 30.7396 191.367 32.3971ZM212.782 33.3012C212.781 34.793 212.832 35.4412 212.896 34.7418C212.959 34.0423 212.96 32.8217 212.897 32.0294C212.835 31.2371 212.783 31.8094 212.782 33.3012ZM169.066 42.9451C169.067 47.7519 169.108 49.6761 169.159 47.2212C169.21 44.7662 169.21 40.8334 169.159 38.4815C169.108 36.1296 169.066 38.1382 169.066 42.9451ZM102.684 41.4382C102.684 43.593 102.733 44.435 102.791 43.3091C102.849 42.1835 102.848 40.4205 102.79 39.3913C102.731 38.3624 102.683 39.2834 102.684 41.4382ZM167.237 43.0957C167.237 45.0019 167.287 45.7815 167.346 44.8286C167.406 43.8757 167.406 42.3158 167.346 41.3629C167.287 40.4099 167.237 41.1896 167.237 43.0957ZM79.7607 45.6574C79.761 48.1437 79.8078 49.1207 79.8645 47.8284C79.9212 46.5365 79.9209 44.5022 79.8639 43.3079C79.8066 42.1139 79.7604 43.1711 79.7607 45.6574ZM215.489 43.8492C215.491 45.0094 215.545 45.447 215.61 44.822C215.675 44.1966 215.675 43.2473 215.608 42.7124C215.541 42.1772 215.488 42.6889 215.489 43.8492ZM251.816 42.4146C252.853 42.4737 254.55 42.4737 255.587 42.4146C256.624 42.3559 255.776 42.3077 253.702 42.3077C251.628 42.3077 250.779 42.3559 251.816 42.4146ZM81.5722 47.767C81.5725 50.419 81.6187 51.4636 81.6748 50.0884C81.7306 48.713 81.7303 46.5431 81.6739 45.2665C81.6175 43.9896 81.5719 45.1149 81.5722 47.767ZM139.204 54.5478C139.204 60.432 139.245 62.8394 139.294 59.8971C139.344 56.9551 139.344 52.1407 139.294 49.1985C139.245 46.2565 139.204 48.6635 139.204 54.5478ZM53.018 46.0287C53.7233 46.0923 54.8768 46.0923 55.5821 46.0287C56.2874 45.9654 55.7104 45.9132 54.3001 45.9132C52.8898 45.9132 52.3127 45.9654 53.018 46.0287ZM4.95312 52.7396C4.95312 55.9718 4.99747 57.2942 5.05177 55.6779C5.10577 54.0617 5.10577 51.4175 5.05177 49.8012C4.99747 48.185 4.95312 49.5074 4.95312 52.7396ZM102.386 56.5067C102.386 58.993 102.433 59.97 102.489 58.6778C102.546 57.3858 102.546 55.3515 102.489 54.1572C102.432 52.9632 102.385 54.0204 102.386 56.5067ZM6.75407 57.4108C6.75438 59.5656 6.80264 60.4076 6.86056 59.2817C6.91879 58.1561 6.91848 56.3931 6.85966 55.3639C6.80113 54.335 6.75347 55.256 6.75407 57.4108ZM69.784 55.904C69.7855 57.0642 69.8398 57.5018 69.9053 56.8768C69.9704 56.2514 69.9695 55.3021 69.9029 54.7672C69.8362 54.232 69.7828 54.7437 69.784 55.904ZM280.666 59.9724C280.666 62.0444 280.714 62.8921 280.773 61.856C280.832 60.8202 280.832 59.125 280.773 58.0889C280.714 57.0531 280.666 57.9005 280.666 59.9724ZM104.179 60.7259C104.179 62.0519 104.233 62.557 104.296 61.8482C104.36 61.1394 104.359 60.0544 104.294 59.4372C104.23 58.82 104.177 59.3998 104.179 60.7259ZM152.266 64.7169C153.469 64.7739 155.438 64.7739 156.64 64.7169C157.843 64.6597 156.859 64.6126 154.453 64.6126C152.048 64.6126 151.063 64.6597 152.266 64.7169ZM6.14742 73.8355C6.14742 75.7416 6.19659 76.5213 6.25632 75.5683C6.31605 74.6154 6.31605 73.0555 6.25632 72.1026C6.19659 71.1497 6.14742 71.9293 6.14742 73.8355Z" fill="white"/>
<path fill-rule="evenodd" clip-rule="evenodd" d="M260.338 4.67238C259.382 5.01775 259.281 5.16362 259.274 6.21871C259.266 7.23975 258.741 9.06907 257.9 10.9999C257.756 11.3315 257.159 13.0945 256.575 14.9178C255.991 16.741 255.229 19.0794 254.882 20.114C254.536 21.1489 254.218 22.166 254.178 22.3742C254.021 23.1816 253.357 25.5019 253.077 26.223C252.915 26.6398 252.713 27.3857 252.628 27.8806C252.543 28.3757 252.204 29.605 251.873 30.6125C251.543 31.62 251.215 32.7049 251.145 33.0235C250.67 35.1632 248.566 40.8157 248.159 41.0426C247.839 41.2219 247.668 41.7183 247.668 42.4702C247.668 43.1043 247.188 44.8121 246.601 46.2656C244.943 50.3751 242.238 58.573 242.238 59.4888C242.238 60.1998 242.346 60.3007 243.017 60.2185C243.651 60.141 243.896 59.8411 244.326 58.6164C244.617 57.7876 244.854 57.0417 244.854 56.9588C244.852 56.392 248.573 46.1921 249.155 45.1699C249.308 44.9019 249.584 44.122 249.769 43.437L250.104 42.1917L253.487 42.1981C255.41 42.2017 257.714 42.4003 258.829 42.6588C259.908 42.909 261.401 43.2556 262.148 43.4291C262.894 43.6027 264.51 43.7682 265.739 43.7968C267.456 43.8372 267.993 43.9538 268.059 44.3013C268.107 44.5499 268.22 45.0924 268.311 45.5068C269.288 49.9571 270.908 58.865 271.08 60.726C271.195 61.9754 271.991 63.7831 272.515 63.9838C273.009 64.1733 273.772 63.6577 273.991 62.9862C274.071 62.7376 273.886 62.2566 273.578 61.9173C273.27 61.5779 272.946 60.7335 272.859 60.0407C272.772 59.3481 272.499 57.8226 272.252 56.6505C272.005 55.4788 271.73 53.7462 271.641 52.8011C271.551 51.8557 271.202 49.9294 270.866 48.5205C269.953 44.6967 269.867 43.6986 270.452 43.6986C271.262 43.6986 270.903 42.0633 270.067 41.9449C269.614 41.8804 269.331 41.5808 269.214 41.0408C269.118 40.5963 268.703 38.8767 268.292 37.2191C267.881 35.5616 267.476 33.8664 267.393 33.452C267.311 33.0376 266.927 31.6136 266.54 30.2876C265.804 27.7636 264.595 22.9884 264.364 21.6986C264.29 21.2842 263.971 19.928 263.655 18.6849C262.736 15.0712 261.595 9.90567 261.404 8.48652C261.266 7.46578 261.368 6.95134 261.868 6.14247C262.384 5.30888 262.437 5.01956 262.141 4.66274C261.722 4.15915 261.759 4.15885 260.338 4.67238ZM167.124 5.57288C166.751 6.55082 166.739 20.7264 167.1 33.7534C167.244 38.9746 167.265 47.5184 167.147 52.7397L166.932 62.2328L167.6 62.9486C168.242 63.6366 168.304 63.6456 169.229 63.1845C170.041 62.7804 170.648 62.7497 173.107 62.9887C177.056 63.3726 179.952 63.3566 182.033 62.9392C183.883 62.5679 184.394 62.0291 183.625 61.2606C183.205 60.8414 182.984 60.8354 181.698 61.2088C180.787 61.4728 179.112 61.6051 177.209 61.5629C174.268 61.4975 169.296 61.0499 169.101 60.8327C169.048 60.7739 168.942 51.4004 168.864 40.0026C168.786 28.6048 168.634 19.1906 168.526 19.0824C168.22 18.7762 168.295 6.98841 168.605 6.79704C169.036 6.53063 168.494 4.9837 167.932 4.87521C167.612 4.81373 167.315 5.0711 167.124 5.57288ZM218.277 5.59669C218.016 5.85737 217.803 6.24975 217.803 6.46855C217.803 6.68764 217.583 6.95134 217.314 7.05441C216.931 7.20118 216.874 7.45523 217.05 8.21679C217.175 8.75293 217.321 9.86981 217.375 10.6986C217.508 12.7452 216.956 25.1227 216.581 28.4794C216.415 29.9712 216.151 33.9041 215.996 37.2191C215.841 40.5342 215.505 46.9558 215.251 51.489C214.996 56.0225 214.863 59.8535 214.956 60.0027C215.206 60.4074 216.295 60.33 216.439 59.8972C216.577 59.4825 216.994 52.5694 217.498 42.3424C217.677 38.6958 218.025 33.339 218.27 30.4383C218.515 27.5376 218.73 23.9438 218.747 22.452C218.764 20.9602 218.866 18.8582 218.973 17.7808L219.168 15.8219L219.715 17.4794C220.592 20.1363 223.489 27.6368 224.953 31.041C225.763 32.9252 225.885 33.2416 227.627 37.9725C228.573 40.5417 229.52 43.0506 229.733 43.5479C229.944 44.0451 230.481 45.4013 230.926 46.5616C231.37 47.7219 232.909 50.807 234.346 53.4174C236.715 57.7225 237.034 58.164 237.77 58.164C238.217 58.1643 238.662 58.035 238.76 57.8771C238.857 57.7195 238.996 56.5327 239.067 55.2401C239.139 53.9479 239.476 51.366 239.816 49.503C240.156 47.6402 240.451 45.7416 240.473 45.2838C240.494 44.8263 240.762 42.9602 241.069 41.1369C241.375 39.3136 241.699 37.0082 241.789 36.0136C241.878 35.0191 242.229 32.1712 242.569 29.6849C242.909 27.1986 243.227 24.2828 243.276 23.2054C243.326 22.128 243.649 18.8054 243.996 15.8219C244.651 10.1742 244.935 7.60049 245.041 6.33685C245.115 5.45504 244.45 5.21485 243.618 5.82301C243.144 6.16869 243.006 6.84195 242.794 9.8249C242.654 11.7971 242.256 15.623 241.91 18.3265C241.565 21.0301 241.356 23.4333 241.445 23.6662C241.535 23.8995 241.484 24.1668 241.333 24.2602C241.181 24.3536 241.131 24.6219 241.221 24.856C241.311 25.0902 241.103 27.1543 240.759 29.4423C240.415 31.7306 240.072 34.4164 239.996 35.4109C239.921 36.4054 239.574 38.9143 239.225 40.9862C238.877 43.0582 238.529 45.3636 238.453 46.1095C238.377 46.8554 238.116 48.6862 237.874 50.178C237.632 51.6698 237.395 53.2294 237.347 53.6438C237.182 55.0774 233.368 47.9 231.26 42.1917C228.136 33.7284 225.538 27.0039 224.448 24.5616C224.079 23.7328 223.663 22.7835 223.524 22.452C223.385 22.1205 222.991 21.1878 222.649 20.3795C222.306 19.5709 222.026 18.6828 222.026 18.4055C222.026 18.1282 221.904 17.7723 221.755 17.615C221.606 17.4574 220.972 15.7013 220.345 13.7123C219.234 10.1817 219.033 8.59562 219.623 8.00614C220.033 7.59658 219.986 5.91825 219.552 5.48488C219.076 5.00841 218.846 5.0283 218.277 5.59669ZM124.362 6.55353C124.154 6.62315 123.984 6.94562 123.984 7.26989C123.984 7.59416 123.723 8.3723 123.403 8.99915C122.791 10.1971 122.156 12.0312 120.886 16.2739C120.464 17.6828 119.765 20.0133 119.333 21.453C118.901 22.8923 118.498 24.4519 118.437 24.9187C118.377 25.3852 118.026 26.9198 117.657 28.3287C117.288 29.7376 116.928 31.2294 116.855 31.6438C116.783 32.0582 116.521 33.1105 116.272 33.9824C116.024 34.8543 115.742 36.1426 115.647 36.8454C115.551 37.5482 115.293 38.5587 115.073 39.0912C114.853 39.6235 114.582 40.7084 114.47 41.5022C114.358 42.2957 113.999 43.9623 113.673 45.2054C113.346 46.4486 113.018 47.9404 112.944 48.5205C112.869 49.1006 112.531 50.728 112.192 52.1369C111.854 53.5458 111.527 55.1732 111.468 55.7534C111.408 56.3335 111.088 58.0287 110.757 59.5205C110.425 61.0123 110.091 62.6397 110.013 63.1369C109.936 63.6342 109.779 64.5244 109.665 65.1151C109.442 66.2742 109.962 67.0568 110.752 66.7537C111.279 66.5521 112.245 63.9413 111.877 63.7147C111.728 63.6224 111.702 63.3934 111.818 63.205C111.934 63.017 112.069 62.5028 112.118 62.0628C112.166 61.6228 112.48 60.0859 112.816 58.6471C113.151 57.2084 113.426 55.7555 113.426 55.4182C113.426 55.0813 113.698 53.6965 114.03 52.341C114.362 50.9857 114.69 49.4698 114.759 48.9725C114.828 48.4753 115.239 46.545 115.673 44.6828C116.266 42.1327 116.648 41.1104 117.219 40.539C118.136 39.6238 118.685 39.6057 122.017 40.382C123.436 40.7126 124.697 40.9676 124.819 40.9489C124.941 40.9302 125.617 40.9308 126.322 40.9507C127.245 40.9763 127.604 41.1131 127.604 41.4383C127.604 41.7162 127.887 41.8904 128.338 41.8904C128.779 41.8904 129.132 42.1007 129.221 42.4178C129.443 43.201 129.802 45.5294 129.861 46.5616C130.044 49.7896 132.187 63.5531 132.613 64.2421C132.902 64.7086 133.916 64.497 134.234 63.9042C134.463 63.4754 134.432 63.0046 134.119 62.1713C133.564 60.6931 133.34 59.657 133.164 57.7517C133.086 56.9013 132.752 54.4084 132.421 52.2117C132.091 50.015 131.759 47.4383 131.684 46.4856C131.608 45.533 131.341 43.6684 131.09 42.3424C130.839 41.0164 130.558 39.2534 130.464 38.4246C130.371 37.5958 130.023 35.2904 129.69 33.3013C129.357 31.3123 129.017 29.0068 128.933 28.178C128.849 27.3493 128.444 24.7502 128.033 22.4023C127.622 20.0543 127.315 18.0201 127.351 17.8817C127.448 17.5095 126.667 13.2256 126.349 12.3829C126.125 11.7919 125.981 10.3324 125.804 6.89137C125.791 6.62707 124.82 6.39953 124.362 6.55353ZM139.159 7.76022C138.856 8.89006 138.878 34.7123 139.196 51.7596C139.4 62.6671 139.543 65.7688 139.854 66.0265C140.141 66.2648 140.534 66.2624 141.277 66.0174C142.061 65.7588 143.39 65.7881 146.912 66.141C151.53 66.6036 157.438 66.6994 159.122 66.3393C160.208 66.1069 160.918 64.6489 160.174 64.1785C159.57 63.7969 159.394 63.8192 158.87 64.3424C158.327 64.8855 152.98 64.9551 148.419 64.4786C146.843 64.3138 144.59 64.0962 143.412 63.9946L141.271 63.8102L141.011 51.1174C140.868 44.1365 140.745 31.3385 140.739 22.678L140.727 6.93115L140.054 6.93145C139.575 6.93145 139.317 7.17014 139.159 7.76022ZM267.804 7.74184C266.998 7.95249 267.114 9.29329 267.955 9.48858C269.216 9.78121 279.452 10.8173 279.682 10.6757C279.807 10.5982 280.461 10.6229 281.134 10.7305L282.359 10.9264L282.353 12.3193C282.35 13.0854 282.222 14.5938 282.069 15.6712C281.373 20.5633 281.13 27.393 281.029 44.9794L280.919 63.8904H281.615C282.25 63.8904 282.327 63.724 282.482 62.0068C282.576 60.971 282.718 51.9184 282.797 41.8904C282.934 24.4887 283.187 18.8124 284.108 12.5083L284.327 11.0027L285.531 11.0858C286.192 11.1316 287.955 11.3025 289.449 11.4656C294.397 12.0059 296.23 11.9761 296.691 11.3474C297.427 10.3454 296.953 10.0368 294.637 10.0075C293.443 9.99277 290.429 9.77126 287.94 9.5154C285.452 9.25953 281.69 8.97986 279.581 8.89367C274.721 8.69537 270.686 8.27737 269.594 7.85937C268.709 7.52033 268.664 7.51732 267.804 7.74184ZM313.808 8.74178C313.435 8.89578 313.129 9.18329 313.129 9.38099C313.129 9.57838 311.932 11.5831 310.467 13.8358C305.752 21.0901 303.416 25.2433 300.611 31.3617C297.718 37.6712 294.286 47.3331 293.66 50.9314C293.559 51.5116 293.283 53.0712 293.047 54.3972C292.404 58.0043 292.47 60.7311 293.219 61.4794C294.755 63.0131 296.62 61.5457 299.653 56.4185C300.534 54.9282 301.9 52.1689 302.688 50.2862C303.476 48.4033 304.333 46.3883 304.591 45.8082C304.851 45.228 305.362 43.8719 305.729 42.7945C309.291 32.3261 309.385 32.047 309.461 31.6438C309.477 31.5609 309.77 30.6794 310.113 29.6849C310.82 27.6331 312.188 22.2145 312.375 20.7282C312.724 17.9516 313.218 15.6428 313.416 15.8689C313.595 16.0747 314.108 20.7896 314.791 28.518C314.932 30.1131 315.276 32.0253 315.705 33.6027C315.93 34.4314 316.174 35.5164 316.246 36.0136C316.797 39.8208 319.766 46.6466 322.434 50.2407C327.205 56.6671 330.541 57.2982 335.932 52.7939C341.893 47.8126 349.243 35.7804 352.965 24.9091C354.804 19.5356 356.655 15.6712 357.495 15.4518C358.313 15.2381 358.271 13.9648 357.438 13.7008C355.818 13.187 354.039 15.9807 351.694 22.7205C350.88 25.0591 350.171 27.1082 350.12 27.2739C349.263 30.0173 344.832 38.2341 341.668 42.9451C337.746 48.7854 332.171 53.9451 329.783 53.9451C328.294 53.9451 325.198 51.0222 322.921 47.466C321.09 44.606 318.63 38.7847 318.146 36.1643C318.07 35.7499 317.729 34.1783 317.389 32.6721C317.048 31.1655 316.695 29.0635 316.602 28.0008C316.51 26.9379 316.371 25.7294 316.293 25.315C316.012 23.8241 315.291 14.8683 315.27 12.6026C315.249 10.4267 315.288 10.2818 315.923 10.1917C316.417 10.1218 316.599 9.89331 316.599 9.34241C316.599 8.69447 316.451 8.58025 315.543 8.5254C314.962 8.49074 314.181 8.58808 313.808 8.74178ZM198.714 9.47531C197.015 9.96052 195.825 10.6841 195.556 11.3941C195.449 11.6747 194.88 12.6557 194.29 13.5742C193.366 15.0118 192.596 16.5647 191.531 19.1369C191.201 19.9344 190.615 22.2248 190.453 23.3561C190.381 23.8534 190.195 24.9886 190.039 25.8786C189.422 29.3935 189.382 33.0186 189.899 38.2739C190.184 41.1746 190.457 43.9568 190.505 44.4568C190.615 45.6132 191.162 47.7439 191.722 49.1986C191.961 49.82 192.095 50.3287 192.021 50.3287C191.822 50.3287 193.861 55.8628 194.573 57.2566C196.013 60.0759 197.943 61.4809 200.372 61.4776C202.648 61.4749 203.786 60.9704 205.291 59.2975C206.623 57.818 209.658 52.1574 209.658 51.1536C209.658 50.9061 209.857 50.2281 210.1 49.6467C210.343 49.0654 210.611 48.201 210.695 47.7264C210.779 47.2514 211.12 45.8039 211.452 44.5093C212.24 41.4353 212.524 38.4728 212.524 33.3013C212.524 28.222 212.252 25.6613 211.43 23.0041C211.09 21.9056 210.76 20.7321 210.695 20.3967C210.63 20.0612 210.312 19.0981 209.988 18.2563C209.663 17.4146 209.089 15.9123 208.711 14.9178C207.94 12.8862 205.943 10.7001 204.031 9.79205C202.528 9.07811 200.522 8.95847 198.714 9.47531ZM52.1314 9.71912C51.523 10.2034 50.5552 12.8036 50.773 13.3702C50.8647 13.6086 50.8581 13.8856 50.7585 13.985C50.659 14.0845 50.5262 14.6739 50.4638 15.2954C50.4014 15.9165 50.1639 17.1705 49.9362 18.0821C49.7084 18.9938 49.4514 20.2821 49.3651 20.9452C49.2789 21.6082 48.9268 23.4104 48.5829 24.9504C48.239 26.4901 47.8972 28.2531 47.8236 28.8682C47.6918 29.9655 47.1609 33.1099 45.8145 40.762C45.2374 44.0409 45.0353 44.6735 44.4395 45.0635C43.6102 45.6065 43.5638 46.017 44.2471 46.7713C44.7207 47.2939 44.7195 47.4714 44.2296 49.5482C43.9415 50.7684 43.654 52.1767 43.5906 52.6782C43.527 53.1794 43.1906 54.7851 42.8434 56.2467C42.4959 57.7084 42.1571 59.3141 42.0907 59.8149C42.0241 60.3161 41.71 61.8787 41.3927 63.2876C41.0753 64.6965 40.8059 66.1256 40.7939 66.4634C40.7577 67.4616 39.5462 72.0957 39.0406 73.1686C38.3443 74.6465 38.564 75.4931 39.6436 75.4931C40.4062 75.4931 40.5734 75.3328 40.8992 74.2876C41.3806 72.7428 42.6368 67.241 42.6883 66.452C42.7402 65.6537 43.101 63.8259 43.6157 61.7542C43.8458 60.8281 44.095 59.594 44.1695 59.0121C44.244 58.4301 44.6051 56.6792 44.972 55.1208C45.3388 53.5627 45.657 52.0842 45.6794 51.8356C45.7017 51.5869 45.9129 50.4574 46.1482 49.3257L46.5762 47.2677L49.4574 47.4506C56.5578 47.9009 56.9876 47.9581 57.1294 48.4756C57.3137 49.1491 57.6266 51.498 57.7656 53.2562C57.8287 54.0494 58.1551 56.3938 58.4912 58.4657C58.8275 60.5376 59.1714 63.1824 59.2559 64.3433C59.3403 65.5039 59.62 67.5381 59.877 68.8639C60.1343 70.1893 60.4227 71.9511 60.5184 72.779C60.7458 74.7502 61.1147 75.4024 61.9371 75.2854C62.4261 75.2158 62.5857 74.9979 62.5573 74.4383C62.4958 73.2208 62.236 71.446 61.719 68.7123C61.4526 67.3034 61.1636 65.2013 61.0767 64.041C60.9899 62.8808 60.6423 60.3041 60.3042 58.315C59.966 56.326 59.6888 54.2917 59.6879 53.7945C59.687 53.2972 59.5708 52.2123 59.4296 51.3835C59.2888 50.5547 59.0981 49.4358 59.0064 48.8972C58.8809 48.1594 58.9494 47.9178 59.2845 47.9178C59.9645 47.9178 59.8502 46.5128 59.1551 46.331C58.6755 46.206 58.5479 45.791 58.3795 43.8098C58.2688 42.5055 57.9011 39.8787 57.5623 37.9725C57.2238 36.0664 56.9074 33.9643 56.8588 33.3013C56.8106 32.6383 56.483 30.4904 56.1312 28.5282C55.7795 26.5663 55.4253 24.2955 55.3442 23.4824C55.2633 22.669 54.9813 21.0196 54.7179 19.8168C54.4545 18.6141 54.187 17.2232 54.1236 16.726C54.0603 16.2287 53.7852 14.8958 53.5124 13.7638C53.1013 12.0593 53.0823 11.5825 53.4017 10.9867C53.7137 10.4038 53.714 10.179 53.4029 9.80471C52.9375 9.24416 52.7444 9.23121 52.1314 9.71912ZM69.8697 10.4725C69.5684 11.9908 69.0365 18.4025 69.1258 19.4389C69.1744 20.001 69.1255 20.5492 69.0175 20.657C68.9095 20.7649 68.8896 21.0319 68.9735 21.2501C69.0573 21.4683 68.9717 24.4727 68.7828 27.9261C68.5943 31.3798 68.4519 36.9856 68.4667 40.3835C68.4811 43.7814 68.3499 48.7993 68.1747 51.5342C67.9994 54.2691 67.7867 58.0664 67.7025 59.9725C67.6181 61.8787 67.352 65.1335 67.1113 67.2054C66.4917 72.5339 66.5185 73.4462 67.3016 73.6945C68.324 74.0188 68.6253 73.3711 68.679 70.7314C68.7068 69.3723 68.8718 67.1753 69.0453 65.8493C69.219 64.5232 69.4368 61.6075 69.5294 59.3698C69.6223 57.1321 69.7702 54.6232 69.8583 53.7945C69.9466 52.9657 70.1379 48.4225 70.2833 43.6986C70.4685 37.6926 70.6724 34.7922 70.9617 34.0547C71.3862 32.9722 72.0951 31.5648 74.0731 27.8767C74.6955 26.7164 75.4107 25.3602 75.6626 24.863C76.5854 23.0412 78.4886 20.4615 78.8265 20.5739C79.0175 20.6375 79.3686 21.2896 79.6069 22.0228C80.2724 24.071 80.1454 37.6796 79.4461 39.254C78.9725 40.3202 78.9746 40.4188 79.4823 40.9793C79.9822 41.5311 80.0057 42.1489 79.8105 49.6428C79.695 54.0811 79.4736 58.8882 79.3182 60.3257C79.1629 61.7633 78.9604 64.4416 78.8684 66.2778L78.7013 69.6164H79.6172C80.3204 69.6164 80.5686 69.4588 80.6869 68.9383C80.8739 68.1144 81.0042 64.6863 81.4018 50.1178L81.708 38.9068L83.4375 35.1999C84.3886 33.1612 85.9256 30.1478 86.8526 28.5035C88.5703 25.4576 91.1294 22.3013 91.8814 22.3013C92.2561 22.3013 92.3753 22.6015 92.7578 24.5082C92.857 25.0037 92.6187 31.0591 91.7113 51.0821C91.4543 56.7581 91.1436 60.7956 90.314 69.2415C90.1876 70.5271 90.2518 70.8613 90.6539 71.0156C91.3861 71.2962 92.0676 70.4376 92.1596 69.1182C92.2039 68.4805 92.3879 66.4671 92.5683 64.6438C93.0501 59.7785 93.4929 53.1697 93.6591 48.3698C93.7394 46.0493 93.9566 40.8958 94.1418 36.9178C94.5575 27.9842 94.4438 22.4903 93.8178 21.2643C93.4235 20.4916 93.2045 20.3804 92.1125 20.3979C90.5079 20.4235 89.0832 21.4831 87.3543 23.9365C85.995 25.8659 85.9 26.0356 83.3747 31.041L81.7783 34.2054L81.7647 28.8001C81.7506 23.169 81.2881 20.0227 80.311 18.9109C79.546 18.0405 78.0826 18.2413 77.0192 19.363C75.8448 20.6019 75.0708 21.8655 72.7271 26.3698C71.6921 28.3588 70.7539 30.0812 70.642 30.1975C70.5301 30.3138 70.5277 28.4152 70.6369 25.9783C70.7458 23.5414 70.9071 19.325 70.9958 16.6081C71.0891 13.7557 71.2921 11.5337 71.4767 11.3492C71.6523 11.1738 71.7962 10.7182 71.7962 10.3369C71.7962 9.77186 71.6333 9.64378 70.915 9.64378C70.1949 9.64378 70.004 9.79507 69.8697 10.4725ZM103.763 11.0117C103.467 11.3682 103.422 12.6078 103.571 16.361C103.734 20.4943 103.428 29.6608 103.039 32.2465C102.88 33.3101 102.547 34.0547 102.232 34.0547C101.687 34.0547 101.97 35.5441 102.577 35.8687C103.062 36.1282 103.156 36.3982 103.026 37.1601C102.936 37.6899 102.727 44.2938 102.563 51.8356C102.398 59.3773 102.137 66.0816 101.982 66.7338C101.652 68.121 102.001 69.0136 102.873 69.0136C103.906 69.0136 104.002 67.8705 104.4 50.9314C104.58 43.2239 104.722 36.3458 104.714 35.6469C104.704 34.7497 104.904 34.1289 105.394 33.5373C107.55 30.9319 111.401 24.3096 112.102 22.0024C112.586 20.4093 112.643 17.4779 112.22 15.9554C111.659 13.9392 109.121 12.3561 106.45 12.3561C105.526 12.3561 105.281 12.2428 105.281 11.8136C105.281 11.2763 104.747 10.5479 104.353 10.5479C104.24 10.5479 103.975 10.7567 103.763 11.0117ZM199.846 11.2564C199.518 11.4803 198.892 11.7504 198.454 11.8564C197.948 11.9791 197.591 12.3175 197.473 12.7856C197.371 13.1903 197.028 13.6041 196.709 13.705C195.808 13.9907 192.887 19.9678 192.582 22.1506C192.536 22.4821 192.265 23.8383 191.981 25.1643C191.337 28.1651 191.262 35.9585 191.838 40.0821C192.058 41.6568 192.28 43.352 192.331 43.8493C192.382 44.3465 192.442 44.7534 192.464 44.7534C192.486 44.7534 192.558 45.1602 192.624 45.6575C192.81 47.0507 195.004 53.5802 195.963 55.5942C196.435 56.5842 197.333 57.9067 197.96 58.5326C198.921 59.4934 199.3 59.6709 200.382 59.67C203.145 59.6676 205.034 57.3973 207.566 51.0333C208.708 48.1631 210.184 42.6007 210.396 40.3645C210.481 39.4634 210.682 37.4406 210.842 35.8699C211.035 33.9688 211.027 32.2049 210.82 30.5959C210.648 29.266 210.455 27.7712 210.393 27.2739C210.104 24.9892 209.915 24.2509 208.613 20.3156C206.622 14.3021 206.124 13.489 203.339 11.7073C201.873 10.7694 200.766 10.6265 199.846 11.2564ZM259.202 12.7093C257.607 17.5189 257.332 18.3606 256.714 20.3144C256.353 21.4593 256 22.7476 255.93 23.1774C255.861 23.6071 255.607 24.5013 255.367 25.1643C255.127 25.8273 254.799 26.9123 254.639 27.5753C254.478 28.2383 254.127 29.5267 253.86 30.4383C253.592 31.3499 253.313 32.3725 253.241 32.7103C253.168 33.0485 252.824 34.1334 252.477 35.1213C252.129 36.1095 251.67 37.528 251.458 38.2739C251.245 39.0198 250.97 39.8673 250.846 40.1575C250.637 40.6445 250.924 40.6849 254.582 40.6849C257.548 40.6849 259.129 40.835 260.874 41.2825C263.393 41.9286 267.578 42.3056 267.578 41.8864C267.578 41.7445 267.451 41.2942 267.295 40.8859C267.14 40.4775 266.925 39.5562 266.818 38.8384C266.711 38.1205 266.559 37.4304 266.482 37.3044C266.317 37.0383 265.482 33.9526 265.276 32.8493C265.198 32.4349 264.857 31.1562 264.518 30.0079C264.178 28.8597 263.853 27.5424 263.794 27.0807C263.735 26.619 263.484 25.642 263.235 24.9097C262.986 24.1773 262.714 23.0535 262.63 22.4122C262.546 21.7712 262.205 20.2852 261.873 19.1104C261.54 17.9357 261.209 16.5117 261.136 15.946C260.949 14.482 260.307 11.675 260.051 11.2025C259.917 10.9532 259.596 11.5225 259.202 12.7093ZM124.151 11.9041C124.027 12.2356 123.723 13.0493 123.475 13.7123C123.227 14.3753 123.036 14.9856 123.051 15.0684C123.066 15.1513 122.82 16.0328 122.504 17.0273C121.787 19.2804 120.551 23.976 120.044 26.3698C119.834 27.3643 119.564 28.3815 119.444 28.6301C119.324 28.8787 119.147 29.6571 119.05 30.3599C118.954 31.0627 118.646 32.4189 118.366 33.3736C118.087 34.3284 117.816 35.3808 117.764 35.7123C117.713 36.0438 117.589 36.7556 117.491 37.2945L117.312 38.2739L118.763 38.2811C119.561 38.2851 120.757 38.4234 121.42 38.5885C122.084 38.7537 123.964 38.971 125.598 39.0719L128.569 39.2552L128.415 37.333C128.33 36.2758 127.989 33.7835 127.656 31.7945C127.092 28.4152 125.796 19.7722 125.601 18.0821C125.295 15.4232 125.136 14.4335 124.778 12.9588C124.463 11.659 124.327 11.4315 124.151 11.9041ZM10.7087 12.8127C10.2109 13.0809 9.52341 13.5625 9.18102 13.8828C8.83833 14.2035 8.33726 14.4657 8.06757 14.4657C7.41537 14.4657 7.19907 14.8569 6.56527 17.178C6.21413 18.4643 5.96888 20.7924 5.85123 23.9588C5.75258 26.6109 5.6298 29.9335 5.57822 31.3424C5.49134 33.7265 5.37218 38.6991 4.98182 56.2054C4.89675 60.0177 4.69765 65.578 4.53928 68.5616C4.3809 71.5451 4.21106 75.6136 4.16159 77.6027C4.072 81.2146 4.0729 81.2191 4.79207 81.3207C5.18816 81.3767 5.62256 81.2438 5.75771 81.0256C5.89255 80.8074 6.00538 78.9986 6.00809 77.0063C6.01051 75.0136 6.15199 70.6712 6.32213 67.3561C6.49227 64.041 6.71852 57.9383 6.82501 53.7945L7.01807 46.2602L7.55112 47.8801C7.84434 48.7712 8.15958 49.877 8.25189 50.3375C8.62475 52.1999 10.8969 57.3268 12.4888 59.8978C14.6282 63.3533 17.7137 66.2998 20.1581 67.222C22.4987 68.105 25.322 67.9275 27.2925 66.7739C30.7399 64.7556 33.9617 60.3842 36.6363 54.0958C36.9184 53.4328 37.3341 52.4835 37.56 51.9862C39.6889 47.3014 40.5924 44.025 39.8768 43.5834C39.2979 43.226 38.6409 43.7558 38.2994 44.8552C38.1109 45.4622 37.6973 46.5339 37.3799 47.2364C37.0626 47.9391 36.7983 48.6172 36.7926 48.7432C36.7868 48.8695 36.5202 49.515 36.1995 50.178C35.8788 50.841 35.6121 51.4845 35.6064 51.6077C35.5826 52.1267 32.8757 57.5586 31.8118 59.2221C29.6084 62.6677 26.6499 65.2788 24.1328 65.9999C23.4034 66.2091 22.7898 66.1292 21.5427 65.663C18.0711 64.3653 15.0391 61.0267 12.4055 55.6027C11.0462 52.8027 8.74783 46.1876 8.74783 45.0752C8.74783 44.807 8.47392 43.8113 8.13876 42.8623C7.80391 41.9133 7.45277 40.5104 7.35835 39.7446C7.19907 38.4526 7.25217 38.3059 8.09683 37.7052C9.3949 36.7815 11.1808 33.9761 13.5742 29.0987C17.5809 20.9346 18.1082 15.9581 15.2512 13.2768C14.2713 12.357 11.9877 12.1238 10.7087 12.8127ZM11.4293 14.6119C10.8302 15.0045 9.85012 15.9921 9.25161 16.807C8.30378 18.0969 8.14148 18.5719 7.99698 20.4841C7.90558 21.6916 7.77103 22.7763 7.69833 22.8938C7.62533 23.0116 7.49561 25.9159 7.40994 29.3479C7.30104 33.7 7.35051 35.5284 7.57344 35.391C8.55356 34.7859 12.6737 27.0536 13.9866 23.3561C15.7329 18.4375 15.7456 16.7175 14.0487 14.9199C13.4997 14.3385 12.931 13.8708 12.7847 13.8807C12.6384 13.8904 12.0285 14.2195 11.4293 14.6119ZM105.284 14.0546C105.285 14.1978 105.251 17.9429 105.208 22.3767C105.165 26.8107 105.156 30.4383 105.186 30.4383C105.218 30.4383 106.161 28.9152 107.284 27.0533C109.569 23.2642 111.013 19.991 111.013 18.5981C111.013 17.2889 109.971 15.2954 108.983 14.714C108.029 14.1523 105.28 13.6625 105.284 14.0546ZM51.564 18.4588C51.3338 19.6604 51.1736 20.7381 51.2086 20.8535C51.2433 20.9687 50.9413 22.5282 50.5374 24.3193C50.1335 26.11 49.7356 28.2534 49.6532 29.0821C49.5709 29.9109 49.2933 31.5784 49.0366 32.7878C48.7802 33.9975 48.4981 35.6927 48.4104 36.5549C48.3223 37.4174 47.9361 39.7181 47.5524 41.6673C47.0556 44.1895 46.9494 45.2892 47.1832 45.48C47.3642 45.6276 49.6001 45.8479 52.1522 45.9694L56.7925 46.1906L56.597 44.5677C56.4896 43.6754 56.3348 42.2387 56.2528 41.3753C56.171 40.5119 55.8974 38.7489 55.6449 37.4575C55.3924 36.1661 55.1167 34.4314 55.0322 33.6027C54.9478 32.7739 54.6156 30.5362 54.2941 28.6301C53.9725 26.7239 53.6307 24.4184 53.5345 23.5068C53.4382 22.5952 53.1441 20.8321 52.8811 19.589C52.618 18.3458 52.4138 17.0912 52.4274 16.8013C52.4409 16.5114 52.3465 16.2739 52.2174 16.2739C52.0886 16.2739 51.7945 17.2573 51.564 18.4588ZM309.151 19.5191C305.518 25.7318 303.084 30.4871 300.886 35.6665C299.63 38.625 298.558 41.2695 298.503 41.5432C298.447 41.8171 298.058 42.9904 297.639 44.1506C296.855 46.3208 295.872 49.5289 295.747 50.3287C295.708 50.5773 295.6 51.1198 295.507 51.5342C295.414 51.9486 295.125 53.2436 294.865 54.4123C294.605 55.5807 294.434 57.3437 294.485 58.3301L294.577 60.1232L296.023 58.315C297.765 56.1385 301.045 49.5756 303.178 43.9999C304.034 41.7623 304.785 39.728 304.848 39.4794C305.001 38.8682 306.765 33.754 307.082 32.9999C307.383 32.2857 308.88 27.3221 309.779 24.0574C310.129 22.7856 310.492 21.0226 310.584 20.1396C310.677 19.2566 310.869 18.0936 311.011 17.5547C311.154 17.0159 311.18 16.5777 311.069 16.5807C310.958 16.5837 310.095 17.9058 309.151 19.5191Z" fill="white"/>
</svg>
